<svg width="1020" height="1141" viewBox="0 0 1020 1141" fill="none" xmlns="http://www.w3.org/2000/svg">
<path opacity="0.5" d="M318.343 66.6942C198.405 167.217 179.819 357.298 98.5892 497.527C70.3124 546.322 33.7749 589.992 14.7119 644.123C-29.0536 768.026 31.1802 908.572 111.801 1006.98C150.245 1053.93 195.149 1096.94 249.478 1116.72C291.258 1131.94 336.056 1132.57 380.033 1132.97L1150.5 1140.9C1236.52 1141.77 1332.1 1138.62 1393.95 1072.21C1436.57 1026.48 1453.89 959.692 1468.58 895.944C1486.64 817.613 1503 732.546 1474.91 657.94C1442.82 572.582 1361.67 524.21 1311.26 450.555C1229.45 331.223 1231.33 150.731 1127.14 55.4664C1078.51 11.0041 1014.33 -6.43212 951.792 -15.1502C833.892 -31.6089 722.215 -0.5408 606.433 -4.87343C507.464 -8.57202 400.447 -2.12591 318.343 66.6942Z" fill="#E7ECFF"/>
<path opacity="0.24" d="M559.786 963.613C513.337 968.283 465.463 973.419 424.589 996.264C419.119 999.328 413.564 1002.94 410.546 1008.46C404.488 1019.55 411.363 1034.18 422.032 1040.86C432.701 1047.53 445.865 1048.29 458.42 1048.84C681.987 1058.59 905.889 1054.76 1129.65 1050.96C1194.62 1049.86 1260.63 1048.59 1322.9 1029.72C1334.1 1026.34 1346.4 1021.26 1350.61 1010.21C1356.13 995.757 1343.55 979.737 1328.88 975.236C1314.2 970.735 1298.55 974.095 1283.37 976.06C1230.68 982.886 1177.52 972.446 1125.05 964.099C1022.35 947.784 915.783 934.512 811.755 932.039C776.289 931.215 746.001 943.515 711.29 948.376C661.173 955.434 610.176 958.541 559.786 963.613Z" fill="#505F98"/>
<path d="M377.077 530.326L492.907 294.408L561.893 328.19L446.063 564.108L377.077 530.326Z" fill="white"/>
<path d="M403.922 523.055L418.036 494.22L464.5 516.903L450.386 545.738L403.922 523.055Z" fill="#505F98"/>
<path d="M403.922 523.055L418.036 494.22L464.5 516.903L450.386 545.738L403.922 523.055Z" fill="url(#paint0_linear_1_52)"/>
<path d="M418.038 494.445L432.151 465.61L478.615 488.293L464.502 517.128L418.038 494.445Z" fill="#505F98"/>
<path d="M418.038 494.445L432.151 465.61L478.615 488.293L464.502 517.128L418.038 494.445Z" fill="url(#paint1_linear_1_52)"/>
<path d="M432.134 465.826L446.248 436.991L492.712 459.674L478.599 488.509L432.134 465.826Z" fill="#505F98"/>
<path d="M432.134 465.826L446.248 436.991L492.712 459.674L478.599 488.509L432.134 465.826Z" fill="url(#paint2_linear_1_52)"/>
<path d="M446.271 437.237L460.384 408.402L506.848 431.085L492.735 459.92L446.271 437.237Z" fill="#505F98"/>
<path d="M446.271 437.237L460.384 408.402L506.848 431.085L492.735 459.92L446.271 437.237Z" fill="url(#paint3_linear_1_52)"/>
<path d="M460.377 408.599L474.49 379.764L520.954 402.447L506.841 431.282L460.377 408.599Z" fill="#505F98"/>
<path d="M474.492 380.01L488.606 351.175L535.07 373.858L520.956 402.693L474.492 380.01Z" fill="#505F98"/>
<path d="M488.589 351.391L502.702 322.556L549.166 345.239L535.053 374.074L488.589 351.391Z" fill="#505F98"/>
<path d="M472.904 383.598L487.018 354.763L533.482 377.446L519.368 406.281L472.904 383.598Z" fill="url(#paint4_linear_1_52)"/>
<path d="M487.029 354.97L501.142 326.135L547.607 348.817L533.493 377.652L487.029 354.97Z" fill="url(#paint5_linear_1_52)"/>
<rect x="787.545" y="848" width="98.0679" height="82" fill="#505F98"/>
<rect x="787.545" y="848" width="98.0679" height="82" fill="url(#paint6_linear_1_52)"/>
<rect x="579.401" y="506" width="518.359" height="355" rx="9.37" fill="#505F98"/>
<path opacity="0.65" d="M1080.75 535.438V829.562C1080.77 834.443 1078.84 839.129 1075.4 842.588C1071.96 846.047 1067.29 847.994 1062.41 848H610.748C605.873 847.989 601.203 846.04 597.764 842.582C594.325 839.125 592.399 834.441 592.41 829.562V535.438C592.399 530.559 594.325 525.875 597.764 522.418C601.203 518.96 605.873 517.011 610.748 517H1062.41C1067.29 517.006 1071.96 518.953 1075.4 522.412C1078.84 525.871 1080.77 530.557 1080.75 535.438Z" fill="url(#paint7_linear_1_52)"/>
<rect x="742.514" y="920" width="206.143" height="21" fill="#505F98"/>
<rect x="787.545" y="908" width="98.0679" height="12" fill="url(#paint8_linear_1_52)"/>
<path fill-rule="evenodd" clip-rule="evenodd" d="M942.653 334.241V354.715L929.944 354.819C928.707 364.346 925.084 373.41 919.405 381.181L930.26 392.351L915.38 406.6L904.694 395.578C898.105 400.062 890.67 403.17 882.838 404.714V418H862.267V405.029C853.483 403.76 845.11 400.497 837.797 395.494L828.861 404.316L814.297 389.647L823.17 380.993C817.584 373.219 814.021 364.191 812.801 354.715H798.553V334.241H813.307C815.136 326.093 818.732 318.441 823.845 311.819L815.604 303.332L830.484 289.082L838.914 297.82C845.885 293.214 853.809 290.228 862.099 289.082V275H882.669V289.396C891.038 291.055 898.947 294.493 905.853 299.476L916.391 289.166L930.871 303.709L920.333 314.187C924.464 320.267 927.397 327.073 928.974 334.241H942.653ZM836.512 347.15C836.488 366.211 852.011 381.682 871.182 381.705C880.394 381.733 889.238 378.113 895.759 371.644C902.281 365.176 905.943 356.392 905.938 347.233C905.961 328.172 890.438 312.701 871.267 312.678C852.095 312.655 836.535 328.088 836.512 347.15Z" fill="#505F98"/>
<path fill-rule="evenodd" clip-rule="evenodd" d="M1018.71 368.354L1017.79 380.396L1010.27 379.938C1009.15 385.475 1006.64 390.641 1002.99 394.958L1008.86 402.021L999.507 409.729L993.747 402.792C989.693 405.13 985.206 406.625 980.558 407.188L979.953 415L967.912 414.104L968.496 406.479C963.411 405.344 958.656 403.056 954.598 399.792L948.964 404.583L941.096 395.396L946.668 390.688C943.74 385.876 942.055 380.414 941.764 374.792L933.646 374.167L934.544 362.146L943.162 362.792C944.586 358.085 947.014 353.743 950.278 350.062L945.834 344.708L955.182 337L959.711 342.5C963.982 340.095 968.738 338.672 973.63 338.333L974.256 330L986.297 330.896L985.65 339.375C990.457 340.714 994.915 343.081 998.714 346.312L1005.33 340.708L1013.18 349.896L1006.5 355.583C1008.66 359.339 1010.08 363.477 1010.67 367.771L1018.71 368.354ZM956.008 371.243C955.153 382.436 963.546 392.203 974.757 393.062C980.151 393.487 985.492 391.747 989.597 388.228C993.703 384.708 996.232 379.7 996.627 374.312C997.469 363.119 989.066 353.361 977.854 352.514C966.642 351.666 956.863 360.05 956.008 371.243Z" fill="#505F98"/>
<path d="M1080.75 535.513V542H592.41V535.513C592.399 530.614 594.325 525.912 597.764 522.44C601.203 518.968 605.874 517.011 610.749 517H1062.41C1067.29 517.006 1071.96 518.961 1075.4 522.434C1078.84 525.907 1080.77 530.613 1080.75 535.513Z" fill="url(#paint9_linear_1_52)"/>
<rect x="602.417" y="574" width="47.0326" height="227" fill="url(#paint10_linear_1_52)"/>
<rect x="720.499" y="590" width="221.153" height="209" fill="url(#paint11_linear_1_52)"/>
<rect x="771.534" y="688" width="7.00485" height="9" fill="url(#paint12_linear_1_52)"/>
<rect x="771.534" y="646" width="7.00485" height="9" fill="url(#paint13_linear_1_52)"/>
<rect x="676.469" y="688" width="7.00485" height="9" fill="url(#paint14_linear_1_52)"/>
<rect x="676.469" y="646" width="7.00485" height="9" fill="url(#paint15_linear_1_52)"/>
<rect x="771.534" y="601" width="7.00485" height="9" fill="url(#paint16_linear_1_52)"/>
<rect x="677.469" y="601" width="7.00485" height="9" fill="url(#paint17_linear_1_52)"/>
<rect x="725.502" y="601" width="7.00485" height="9" fill="url(#paint18_linear_1_52)"/>
<rect x="725.502" y="688" width="7.00485" height="9" fill="url(#paint19_linear_1_52)"/>
<path fill-rule="evenodd" clip-rule="evenodd" d="M689.478 686H767.532V613H689.478V686ZM759.67 678.282H697.34V620.656H759.67V678.282Z" fill="#505F98"/>
<path fill-rule="evenodd" clip-rule="evenodd" d="M689.478 686H767.532V613H689.478V686ZM759.67 678.282H697.34V620.656H759.67V678.282Z" fill="url(#paint20_linear_1_52)"/>
<rect x="973.674" y="554" width="100.069" height="100" fill="url(#paint21_linear_1_52)"/>
<rect x="973.674" y="664" width="100.069" height="100" fill="url(#paint22_linear_1_52)"/>
<rect opacity="0.65" x="602.417" y="573" width="47.0326" height="13" fill="url(#paint23_linear_1_52)"/>
<path d="M399.381 504.827L604.51 340.293L652.622 400.118L447.494 564.652L399.381 504.827Z" fill="white"/>
<path d="M428.105 509.455L453.172 489.235L485.755 529.522L460.687 549.742L428.105 509.455Z" fill="#505F98"/>
<path d="M428.105 509.455L453.172 489.235L485.755 529.522L460.687 549.742L428.105 509.455Z" fill="url(#paint24_linear_1_52)"/>
<path d="M451.723 489.689L476.755 469.56L509.19 509.79L484.158 529.919L451.723 489.689Z" fill="#505F98"/>
<path d="M451.723 489.689L476.755 469.56L509.19 509.79L484.158 529.919L451.723 489.689Z" fill="url(#paint25_linear_1_52)"/>
<path d="M476.667 469.761L501.699 449.633L534.134 489.863L509.101 509.991L476.667 469.761Z" fill="#505F98"/>
<path d="M476.667 469.761L501.699 449.633L534.134 489.863L509.101 509.991L476.667 469.761Z" fill="url(#paint26_linear_1_52)"/>
<path d="M501.594 449.847L526.626 429.718L559.061 469.948L534.029 490.077L501.594 449.847Z" fill="#505F98"/>
<path d="M501.594 449.847L526.626 429.718L559.061 469.948L534.029 490.077L501.594 449.847Z" fill="url(#paint27_linear_1_52)"/>
<path d="M527.714 429.389L552.782 409.169L585.364 449.456L560.297 469.676L527.714 429.389Z" fill="#505F98"/>
<path d="M552.794 408.99L577.862 388.77L610.444 429.057L585.377 449.277L552.794 408.99Z" fill="#505F98"/>
<path d="M576.402 390.051L601.434 369.923L633.869 410.153L608.837 430.281L576.402 390.051Z" fill="#505F98"/>
<path d="M606.42 433.218L585.321 450L553.383 409.782L574.482 393L606.42 433.218Z" fill="url(#paint28_linear_1_52)"/>
<path d="M573.445 392.648L598.477 372.519L630.912 412.749L605.879 432.878L573.445 392.648Z" fill="url(#paint29_linear_1_52)"/>
<path d="M522.362 514.15V637H501.347V514.15C501.347 509.61 504.166 505.57 508.366 504.089V491.825C508.366 489.712 510.041 488 512.109 488C514.176 488 515.852 489.712 515.852 491.825V504.297C519.771 505.935 522.34 509.823 522.362 514.15Z" fill="#505F98"/>
<path d="M522.362 514.15V637H501.347V514.15C501.347 509.61 504.166 505.57 508.366 504.089V491.825C508.366 489.712 510.041 488 512.109 488C514.176 488 515.852 489.712 515.852 491.825V504.297C519.771 505.935 522.34 509.823 522.362 514.15Z" fill="url(#paint30_linear_1_52)"/>
<rect x="488.338" y="592" width="50.0346" height="9" rx="2.245" fill="#505F98"/>
<path d="M513.044 674C504.471 674 497.344 661.185 497.344 652.634V596H528.366V652.634C528.366 661.185 521.596 674 513.044 674Z" fill="#505F98"/>
<rect x="488.338" y="592" width="50.0346" height="9" rx="2.245" fill="url(#paint31_linear_1_52)"/>
<path d="M513.044 674C504.471 674 497.344 661.366 497.344 652.937V601H528.366V652.937C528.366 661.366 521.596 674 513.044 674Z" fill="url(#paint32_linear_1_52)"/>
<path d="M713.136 734C712.463 730.436 712.037 725.39 713.331 725.043C716.059 724.275 713.136 734 713.136 734Z" fill="#28353D"/>
<path d="M856.395 929.507C855.909 942.102 846.147 988.388 845.83 1001C845.83 1005.2 846.95 1011.65 845.597 1015.7C842.808 1024.28 832.919 1023.11 831.63 1018.05L831.144 1015.53C826.559 991.012 833.933 963.198 831.144 931.186C829.475 911.643 821.699 873.963 816.606 873.711C813.923 873.711 752.665 1002.85 747.34 1010.81C744.72 1014.82 737.345 1014.19 733.774 1017.42C730.203 1020.65 763.526 919.515 777.493 866.07C780.751 855.039 782.875 843.709 783.833 832.252C784.213 825.64 782.079 823.415 788.185 821.463C792.412 820.119 798.265 820.497 802.787 820.182C807.71 819.804 853.5 819.72 853.5 822.953C853.057 840.502 857.578 900.412 856.395 929.507Z" fill="#606161"/>
<path d="M856.395 929.507C855.909 942.102 846.147 988.388 845.83 1001C845.83 1005.2 846.95 1011.65 845.597 1015.7C842.808 1024.28 832.919 1023.11 831.63 1018.05L831.144 1015.53C826.559 991.012 833.933 963.198 831.144 931.186C829.475 911.643 821.699 873.963 816.606 873.711C813.923 873.711 752.665 1002.85 747.34 1010.81C744.72 1014.82 737.345 1014.19 733.774 1017.42C730.203 1020.65 763.526 919.515 777.493 866.07C780.751 855.039 782.875 843.709 783.833 832.252C784.213 825.64 782.079 823.415 788.185 821.463C792.412 820.119 798.265 820.497 802.787 820.182C807.71 819.804 853.5 819.72 853.5 822.953C853.057 840.502 857.578 900.412 856.395 929.507Z" fill="url(#paint33_linear_1_52)"/>
<path d="M802.322 661.148C801.937 657.163 800.054 655 798.215 655C796.375 655 795.241 657.12 795.626 661.148C795.713 664.122 797.957 666.597 800.932 667C802.793 667 802.729 665.134 802.322 661.148Z" fill="#FFCD9C"/>
<path d="M834.716 661.159C834.966 657.166 836.803 655 838.702 655C840.601 655 841.832 657.124 841.54 661.159C841.514 664.173 839.268 666.687 836.323 667C834.445 667 834.424 665.152 834.716 661.159Z" fill="#FFCD9C"/>
<path d="M838.44 678.672C838.181 680.777 829.266 690 819.121 690C808.976 690 800.6 681.577 798.83 678.208C797.06 674.839 804.184 631.505 808.306 627.884C812.429 624.262 829.137 626.641 830.54 628.558C833.907 633.085 839.541 670.27 838.44 678.672Z" fill="#F4AD7D"/>
<path d="M834.246 645.977C832.867 646.639 827.452 632.842 826.316 630.525C825.18 628.208 825.362 625.829 826.742 625.167C828.121 624.505 830.149 625.871 831.285 628.167C832.421 630.463 835.605 645.336 834.246 645.977Z" fill="#FFCD9C"/>
<path d="M803.876 644.987C802.446 644.501 806.233 630.179 807.059 627.703C807.885 625.228 809.739 623.599 811.089 624.086C812.439 624.573 813.003 626.984 812.177 629.481C811.351 631.977 805.226 645.474 803.876 644.987Z" fill="#FFCD9C"/>
<path d="M809.553 677H831.317L834.578 697.622C822.722 704.005 815.81 703.301 806.559 696.214L809.553 677Z" fill="#F4AD7D"/>
<path d="M818.567 681.13C818.567 680.75 819.472 680.43 820.568 680.43C821.664 680.43 822.57 680.75 822.57 681.13C822.57 681.51 821.688 681.57 820.568 681.57C819.448 681.57 818.567 681.53 818.567 681.13Z" fill="#F4AD7D"/>
<path d="M839.6 671.808C840.424 666.894 841.768 631.708 838.473 627.051C835.177 622.394 815.449 619.381 812.457 620.108C805.758 621.731 806.929 626.517 806.929 626.517C804.938 626.547 802.989 627.084 801.271 628.076C798.973 629.615 794.138 651.79 797.997 668.56C799.732 676.102 806.561 682.66 818.354 682.981C832.879 683.365 838.603 677.896 839.6 671.808Z" fill="#606161"/>
<path d="M812.539 621.762C814.098 620.448 816.118 619.828 818.138 620.041C824.271 620.008 830.355 621.14 836.073 623.376C839.243 624.488 842.122 626.311 844.493 628.708C846.88 631.173 847.979 634.627 847.461 638.034C846.408 643.047 841.146 646.148 839.42 650.97C838.031 654.837 839.02 658.575 839.062 662.463C839.09 665.606 838.865 668.746 838.388 671.852C837.42 677.906 831.884 683.344 817.675 682.983C806.224 682.664 799.593 676.143 797.909 668.644C795.629 656.198 796.227 643.389 799.656 631.215C805.828 632.648 812.142 633.361 818.475 633.339C825.19 633.395 831.886 632.611 838.409 631.002C839.525 637.503 839.504 650.524 839.146 660.253" fill="#606161"/>
<path d="M777.41 693.954C773.976 694.241 770.668 695.384 767.785 697.28C762.847 701.171 762.472 708.43 762.556 714.748C762.387 723.501 762.993 732.252 764.368 740.897C765.848 748.826 768.535 756.441 770.743 764.202C774.224 776.831 776.052 789.862 776.181 802.966C776.181 810.162 776.056 818.07 780.535 823.697C785.431 829.806 794.098 830.998 801.89 831.438C812.953 832.086 824.057 832.17 835.12 831.709C842.537 831.375 850.433 830.643 856.308 826.082C860.996 822.442 871.975 699.288 863.454 696.171C854.933 693.054 845.766 692.259 836.724 691.506C816.453 689.791 797.369 688.431 777.41 693.954Z" fill="#505F98"/>
<path d="M841.23 949.291C840.143 963.255 837.551 1014 837.551 1014L830.946 1013.77C826.41 989.39 833.705 961.732 830.946 929.899C829.295 910.465 821.603 872.996 816.565 872.746C818.07 860.221 826.536 862.1 826.536 862.1C832.692 871.294 838.002 881.026 842.4 891.178C847.438 904.37 842.337 935.263 841.23 949.291Z" fill="url(#paint34_linear_1_52)"/>
<path d="M716.873 1015.02C715.841 1015.79 715.058 1016.83 714.621 1018.03C714.386 1019.01 714.481 1020.04 714.892 1020.97C716.058 1023.33 718.269 1025.02 720.876 1025.55C723.453 1026.04 726.091 1026.13 728.696 1025.82L737.036 1025.26C739.158 1025.21 741.264 1024.87 743.292 1024.26C745.322 1023.63 746.998 1022.2 747.921 1020.31C748.412 1018.92 748.604 1017.44 748.484 1015.97C748.484 1009.16 746.065 1003.63 738.517 1005.3C730.61 1006.77 723.183 1010.1 716.873 1015.02Z" fill="#505F98"/>
<path d="M855.411 1018.06C856.359 1018.76 857.077 1019.71 857.478 1020.8C857.692 1021.68 857.608 1022.61 857.239 1023.45C856.176 1025.58 854.146 1027.11 851.755 1027.58C849.398 1028.04 846.981 1028.12 844.596 1027.83L837.024 1027.33C835.098 1027.28 833.187 1026.98 831.345 1026.43C829.488 1025.86 827.958 1024.57 827.123 1022.85C826.675 1021.59 826.498 1020.26 826.601 1018.93C826.601 1012.79 828.777 1007.72 835.718 1009.29C842.915 1010.62 849.672 1013.63 855.411 1018.06Z" fill="#505F98"/>
<path d="M864.599 696C864.599 696 897.314 715.163 907.14 739.389C916.965 763.614 874.961 822 874.961 822L865.972 812.814C865.972 812.814 887.897 768.759 884.507 757.74C881.117 746.721 867.838 736.452 867.838 736.452L864.599 696Z" fill="#505F98"/>
<path d="M771.534 733.859C771.534 733.859 726.046 754.24 707.561 744.238C689.076 734.237 708.106 684 708.106 684L720.486 688.202C720.486 688.202 710.142 713.815 721.975 717.618C733.809 721.421 769.268 696.438 769.268 696.438L771.534 733.859Z" fill="#505F98"/>
<path d="M857.175 820.976C855.866 821.826 854.806 822.968 854.09 824.297C853.66 825.425 853.505 826.629 853.637 827.819C853.557 830.709 854.872 833.479 857.218 835.367C858.866 836.25 860.713 836.76 862.611 836.857C863.774 837.048 864.964 837.048 866.128 836.857C867.314 836.646 868.305 835.888 868.759 834.844C868.914 834.183 868.98 833.507 868.954 832.831C869.105 829.51 871.607 826.793 873.678 824.076C874.178 823.551 874.501 822.9 874.606 822.204C874.594 821.434 874.305 820.69 873.786 820.091C872.384 818.199 868.91 814.717 866.128 815.018C863.345 815.32 859.332 819.326 857.175 820.976Z" fill="#F4AD7D"/>
<path d="M728.294 676.435C728.886 675.611 729.29 674.679 729.48 673.698C729.631 672.683 729.094 671.687 728.14 671.211C726.624 670.647 724.822 672.13 723.328 671.504C722.822 671.235 722.399 670.846 722.098 670.375C720.333 667.945 719.321 665.093 719.175 662.143C719.261 660.571 719.113 658.995 718.736 657.463C718.292 655.886 716.708 654.849 715.001 655.018C713.595 655.331 712.804 656.689 711.925 657.776C711.046 658.863 709.288 660.158 708.146 661.516C706.195 664.307 705.079 667.55 704.916 670.898C704.301 675.077 703.905 679.861 706.981 682.87C709.354 685.189 716.583 687.927 719.9 686.694C723.57 685.315 726.448 679.444 728.294 676.435Z" fill="#F4AD7D"/>
<defs>
<linearGradient id="paint0_linear_1_52" x1="528.11" y1="590.166" x2="592.864" y2="461.6" gradientUnits="userSpaceOnUse">
<stop stop-color="#010101" stop-opacity="0.01"/>
<stop offset="0.95" stop-color="#010101"/>
</linearGradient>
<linearGradient id="paint1_linear_1_52" x1="583.271" y1="586.365" x2="676.125" y2="404.775" gradientUnits="userSpaceOnUse">
<stop stop-color="#010101" stop-opacity="0.01"/>
<stop offset="0.95" stop-color="#010101"/>
</linearGradient>
<linearGradient id="paint2_linear_1_52" x1="703.253" y1="595.092" x2="840.607" y2="284.948" gradientUnits="userSpaceOnUse">
<stop stop-color="#010101" stop-opacity="0.01"/>
<stop offset="0.95" stop-color="#010101"/>
</linearGradient>
<linearGradient id="paint3_linear_1_52" x1="831.087" y1="611.583" x2="1036.02" y2="164.179" gradientUnits="userSpaceOnUse">
<stop stop-color="#010101" stop-opacity="0.01"/>
<stop offset="0.36" stop-color="#010101" stop-opacity="0.36"/>
<stop offset="0.95" stop-color="#010101"/>
</linearGradient>
<linearGradient id="paint4_linear_1_52" x1="682.434" y1="506.564" x2="799.594" y2="264.969" gradientUnits="userSpaceOnUse">
<stop stop-color="white" stop-opacity="0.01"/>
<stop offset="0.07" stop-color="white" stop-opacity="0.22"/>
<stop offset="0.16" stop-color="white" stop-opacity="0.45"/>
<stop offset="0.25" stop-color="white" stop-opacity="0.65"/>
<stop offset="0.33" stop-color="white" stop-opacity="0.8"/>
<stop offset="0.4" stop-color="white" stop-opacity="0.91"/>
<stop offset="0.46" stop-color="white" stop-opacity="0.98"/>
<stop offset="0.51" stop-color="white"/>
</linearGradient>
<linearGradient id="paint5_linear_1_52" x1="604.358" y1="453.444" x2="668.555" y2="317.555" gradientUnits="userSpaceOnUse">
<stop stop-color="white" stop-opacity="0.01"/>
<stop offset="0.07" stop-color="white" stop-opacity="0.22"/>
<stop offset="0.16" stop-color="white" stop-opacity="0.45"/>
<stop offset="0.25" stop-color="white" stop-opacity="0.65"/>
<stop offset="0.33" stop-color="white" stop-opacity="0.8"/>
<stop offset="0.4" stop-color="white" stop-opacity="0.91"/>
<stop offset="0.46" stop-color="white" stop-opacity="0.98"/>
<stop offset="0.51" stop-color="white"/>
</linearGradient>
<linearGradient id="paint6_linear_1_52" x1="909.68" y1="916.322" x2="920.101" y2="789.584" gradientUnits="userSpaceOnUse">
<stop stop-color="#010101" stop-opacity="0.01"/>
<stop offset="0.95" stop-color="#010101"/>
</linearGradient>
<linearGradient id="paint7_linear_1_52" x1="507.967" y1="453.517" x2="505.252" y2="903.071" gradientUnits="userSpaceOnUse">
<stop stop-color="white" stop-opacity="0.01"/>
<stop offset="0.07" stop-color="white" stop-opacity="0.22"/>
<stop offset="0.16" stop-color="white" stop-opacity="0.45"/>
<stop offset="0.25" stop-color="white" stop-opacity="0.65"/>
<stop offset="0.33" stop-color="white" stop-opacity="0.8"/>
<stop offset="0.4" stop-color="white" stop-opacity="0.91"/>
<stop offset="0.46" stop-color="white" stop-opacity="0.98"/>
<stop offset="0.51" stop-color="white"/>
</linearGradient>
<linearGradient id="paint8_linear_1_52" x1="254.313" y1="891.073" x2="254.413" y2="1033.31" gradientUnits="userSpaceOnUse">
<stop stop-color="#010101" stop-opacity="0.01"/>
<stop offset="0.95" stop-color="#010101"/>
</linearGradient>
<linearGradient id="paint9_linear_1_52" x1="1406.73" y1="636.966" x2="1440.91" y2="229.855" gradientUnits="userSpaceOnUse">
<stop stop-color="white" stop-opacity="0.01"/>
<stop offset="0.07" stop-color="white" stop-opacity="0.22"/>
<stop offset="0.16" stop-color="white" stop-opacity="0.45"/>
<stop offset="0.25" stop-color="white" stop-opacity="0.65"/>
<stop offset="0.33" stop-color="white" stop-opacity="0.8"/>
<stop offset="0.4" stop-color="white" stop-opacity="0.91"/>
<stop offset="0.46" stop-color="white" stop-opacity="0.98"/>
<stop offset="0.51" stop-color="white"/>
</linearGradient>
<linearGradient id="paint10_linear_1_52" x1="579.846" y1="526.87" x2="717.853" y2="895.142" gradientUnits="userSpaceOnUse">
<stop stop-color="white" stop-opacity="0.01"/>
<stop offset="0.07" stop-color="white" stop-opacity="0.22"/>
<stop offset="0.16" stop-color="white" stop-opacity="0.45"/>
<stop offset="0.25" stop-color="white" stop-opacity="0.65"/>
<stop offset="0.33" stop-color="white" stop-opacity="0.8"/>
<stop offset="0.4" stop-color="white" stop-opacity="0.91"/>
<stop offset="0.46" stop-color="white" stop-opacity="0.98"/>
<stop offset="0.51" stop-color="white"/>
</linearGradient>
<linearGradient id="paint11_linear_1_52" x1="683.377" y1="549.99" x2="680.051" y2="832.698" gradientUnits="userSpaceOnUse">
<stop stop-color="white" stop-opacity="0.01"/>
<stop offset="0.07" stop-color="white" stop-opacity="0.22"/>
<stop offset="0.16" stop-color="white" stop-opacity="0.45"/>
<stop offset="0.25" stop-color="white" stop-opacity="0.65"/>
<stop offset="0.33" stop-color="white" stop-opacity="0.8"/>
<stop offset="0.4" stop-color="white" stop-opacity="0.91"/>
<stop offset="0.46" stop-color="white" stop-opacity="0.98"/>
<stop offset="0.51" stop-color="white"/>
</linearGradient>
<linearGradient id="paint12_linear_1_52" x1="999.211" y1="741.704" x2="1018.4" y2="163.785" gradientUnits="userSpaceOnUse">
<stop stop-color="#010101" stop-opacity="0.01"/>
<stop offset="0.95" stop-color="#010101"/>
</linearGradient>
<linearGradient id="paint13_linear_1_52" x1="998.359" y1="742.045" x2="1017.55" y2="164.125" gradientUnits="userSpaceOnUse">
<stop stop-color="#010101" stop-opacity="0.01"/>
<stop offset="0.95" stop-color="#010101"/>
</linearGradient>
<linearGradient id="paint14_linear_1_52" x1="904.18" y1="739.354" x2="923.396" y2="161.435" gradientUnits="userSpaceOnUse">
<stop stop-color="#010101" stop-opacity="0.01"/>
<stop offset="0.95" stop-color="#010101"/>
</linearGradient>
<linearGradient id="paint15_linear_1_52" x1="903.328" y1="739.694" x2="922.544" y2="161.776" gradientUnits="userSpaceOnUse">
<stop stop-color="#010101" stop-opacity="0.01"/>
<stop offset="0.95" stop-color="#010101"/>
</linearGradient>
<linearGradient id="paint16_linear_1_52" x1="997.421" y1="743.545" x2="1016.64" y2="165.627" gradientUnits="userSpaceOnUse">
<stop stop-color="#010101" stop-opacity="0.01"/>
<stop offset="0.95" stop-color="#010101"/>
</linearGradient>
<linearGradient id="paint17_linear_1_52" x1="903.39" y1="741.236" x2="922.578" y2="163.317" gradientUnits="userSpaceOnUse">
<stop stop-color="#010101" stop-opacity="0.01"/>
<stop offset="0.95" stop-color="#010101"/>
</linearGradient>
<linearGradient id="paint18_linear_1_52" x1="951.38" y1="742.396" x2="970.597" y2="164.499" gradientUnits="userSpaceOnUse">
<stop stop-color="#010101" stop-opacity="0.01"/>
<stop offset="0.95" stop-color="#010101"/>
</linearGradient>
<linearGradient id="paint19_linear_1_52" x1="953.196" y1="739.843" x2="972.413" y2="161.925" gradientUnits="userSpaceOnUse">
<stop stop-color="#010101" stop-opacity="0.01"/>
<stop offset="0.95" stop-color="#010101"/>
</linearGradient>
<linearGradient id="paint20_linear_1_52" x1="608.119" y1="754.399" x2="840.351" y2="971.094" gradientUnits="userSpaceOnUse">
<stop stop-color="white" stop-opacity="0.01"/>
<stop offset="0.07" stop-color="white" stop-opacity="0.22"/>
<stop offset="0.16" stop-color="white" stop-opacity="0.45"/>
<stop offset="0.25" stop-color="white" stop-opacity="0.65"/>
<stop offset="0.33" stop-color="white" stop-opacity="0.8"/>
<stop offset="0.4" stop-color="white" stop-opacity="0.91"/>
<stop offset="0.46" stop-color="white" stop-opacity="0.98"/>
<stop offset="0.51" stop-color="white"/>
</linearGradient>
<linearGradient id="paint21_linear_1_52" x1="956.986" y1="534.864" x2="955.2" y2="670.026" gradientUnits="userSpaceOnUse">
<stop stop-color="white" stop-opacity="0.01"/>
<stop offset="0.07" stop-color="white" stop-opacity="0.22"/>
<stop offset="0.16" stop-color="white" stop-opacity="0.45"/>
<stop offset="0.25" stop-color="white" stop-opacity="0.65"/>
<stop offset="0.33" stop-color="white" stop-opacity="0.8"/>
<stop offset="0.4" stop-color="white" stop-opacity="0.91"/>
<stop offset="0.46" stop-color="white" stop-opacity="0.98"/>
<stop offset="0.51" stop-color="white"/>
</linearGradient>
<linearGradient id="paint22_linear_1_52" x1="956.986" y1="644.864" x2="955.2" y2="780.026" gradientUnits="userSpaceOnUse">
<stop stop-color="white" stop-opacity="0.01"/>
<stop offset="0.07" stop-color="white" stop-opacity="0.22"/>
<stop offset="0.16" stop-color="white" stop-opacity="0.45"/>
<stop offset="0.25" stop-color="white" stop-opacity="0.65"/>
<stop offset="0.33" stop-color="white" stop-opacity="0.8"/>
<stop offset="0.4" stop-color="white" stop-opacity="0.91"/>
<stop offset="0.46" stop-color="white" stop-opacity="0.98"/>
<stop offset="0.51" stop-color="white"/>
</linearGradient>
<linearGradient id="paint23_linear_1_52" x1="593.145" y1="570.281" x2="593.128" y2="588.481" gradientUnits="userSpaceOnUse">
<stop stop-color="white" stop-opacity="0.01"/>
<stop offset="0.07" stop-color="white" stop-opacity="0.22"/>
<stop offset="0.16" stop-color="white" stop-opacity="0.45"/>
<stop offset="0.25" stop-color="white" stop-opacity="0.65"/>
<stop offset="0.33" stop-color="white" stop-opacity="0.8"/>
<stop offset="0.4" stop-color="white" stop-opacity="0.91"/>
<stop offset="0.46" stop-color="white" stop-opacity="0.98"/>
<stop offset="0.51" stop-color="white"/>
</linearGradient>
<linearGradient id="paint24_linear_1_52" x1="512.445" y1="623.052" x2="625.876" y2="533.635" gradientUnits="userSpaceOnUse">
<stop stop-color="#010101" stop-opacity="0.01"/>
<stop offset="0.95" stop-color="#010101"/>
</linearGradient>
<linearGradient id="paint25_linear_1_52" x1="562.284" y1="642.988" x2="723.56" y2="517.867" gradientUnits="userSpaceOnUse">
<stop stop-color="#010101" stop-opacity="0.01"/>
<stop offset="0.95" stop-color="#010101"/>
</linearGradient>
<linearGradient id="paint26_linear_1_52" x1="667.228" y1="701.751" x2="923.392" y2="479.028" gradientUnits="userSpaceOnUse">
<stop stop-color="#010101" stop-opacity="0.01"/>
<stop offset="0.95" stop-color="#010101"/>
</linearGradient>
<linearGradient id="paint27_linear_1_52" x1="775.987" y1="770.865" x2="1151.67" y2="452.45" gradientUnits="userSpaceOnUse">
<stop stop-color="#010101" stop-opacity="0.01"/>
<stop offset="0.36" stop-color="#010101" stop-opacity="0.36"/>
<stop offset="0.95" stop-color="#010101"/>
</linearGradient>
<linearGradient id="paint28_linear_1_52" x1="624.246" y1="533.751" x2="807.185" y2="402.322" gradientUnits="userSpaceOnUse">
<stop stop-color="white" stop-opacity="0.01"/>
<stop offset="0.07" stop-color="white" stop-opacity="0.22"/>
<stop offset="0.16" stop-color="white" stop-opacity="0.45"/>
<stop offset="0.25" stop-color="white" stop-opacity="0.65"/>
<stop offset="0.33" stop-color="white" stop-opacity="0.8"/>
<stop offset="0.4" stop-color="white" stop-opacity="0.91"/>
<stop offset="0.46" stop-color="white" stop-opacity="0.98"/>
<stop offset="0.51" stop-color="white"/>
</linearGradient>
<linearGradient id="paint29_linear_1_52" x1="637.859" y1="531.517" x2="753.717" y2="435.658" gradientUnits="userSpaceOnUse">
<stop stop-color="white" stop-opacity="0.01"/>
<stop offset="0.07" stop-color="white" stop-opacity="0.22"/>
<stop offset="0.16" stop-color="white" stop-opacity="0.45"/>
<stop offset="0.25" stop-color="white" stop-opacity="0.65"/>
<stop offset="0.33" stop-color="white" stop-opacity="0.8"/>
<stop offset="0.4" stop-color="white" stop-opacity="0.91"/>
<stop offset="0.46" stop-color="white" stop-opacity="0.98"/>
<stop offset="0.51" stop-color="white"/>
</linearGradient>
<linearGradient id="paint30_linear_1_52" x1="503.446" y1="697.745" x2="541.631" y2="697.767" gradientUnits="userSpaceOnUse">
<stop stop-color="white" stop-opacity="0.01"/>
<stop offset="0.07" stop-color="white" stop-opacity="0.22"/>
<stop offset="0.16" stop-color="white" stop-opacity="0.45"/>
<stop offset="0.25" stop-color="white" stop-opacity="0.65"/>
<stop offset="0.33" stop-color="white" stop-opacity="0.8"/>
<stop offset="0.4" stop-color="white" stop-opacity="0.91"/>
<stop offset="0.46" stop-color="white" stop-opacity="0.98"/>
<stop offset="0.51" stop-color="white"/>
</linearGradient>
<linearGradient id="paint31_linear_1_52" x1="430.154" y1="600.2" x2="441.805" y2="638.932" gradientUnits="userSpaceOnUse">
<stop stop-color="#010101" stop-opacity="0.01"/>
<stop offset="0.95" stop-color="#010101"/>
</linearGradient>
<linearGradient id="paint32_linear_1_52" x1="454.952" y1="748.933" x2="555.855" y2="750.976" gradientUnits="userSpaceOnUse">
<stop stop-color="#010101" stop-opacity="0.01"/>
<stop offset="0.95" stop-color="#010101"/>
</linearGradient>
<linearGradient id="paint33_linear_1_52" x1="857.723" y1="906.512" x2="761.63" y2="741.732" gradientUnits="userSpaceOnUse">
<stop stop-color="#010101" stop-opacity="0.01"/>
<stop offset="0.95" stop-color="#010101"/>
</linearGradient>
<linearGradient id="paint34_linear_1_52" x1="858.746" y1="444.892" x2="685.86" y2="449.761" gradientUnits="userSpaceOnUse">
<stop stop-color="#010101" stop-opacity="0.01"/>
<stop offset="0.95" stop-color="#010101"/>
</linearGradient>
</defs>
</svg>
